<svg width="549" height="864" viewBox="0 0 549 864" fill="none" xmlns="http://www.w3.org/2000/svg">
<g clip-path="url(#clip0_549_601)">
<path d="M242.34 260.282L241.739 266.33C212.519 270.312 185.154 290.635 181.54 324.842L180.037 339.686C158.941 345.807 139.253 362.198 136.332 389.656L130.643 446.269C129.029 460.821 132.141 472.102 140.736 482.862C141.527 483.853 142.372 484.849 143.264 485.858L143.513 486.138L143.783 486.415L181.003 524.976C191.858 536.365 206.683 541.522 222.352 539.81C224.252 542.311 226.182 544.789 228.136 547.235C250.224 574.886 282.294 607.2 320.299 622.309L319.722 622.88L324.968 624.061C333.975 627.311 343.348 629.443 352.876 630.407C375.499 636.108 410.726 667.251 449.759 716.115C462.76 732.391 471.227 744.544 471.323 744.664L482.318 760.428L727.087 564.902L718.091 551.193C707.266 534.703 677.361 486.033 668.967 459.046C661.735 435.79 662.077 408.967 662.382 385.282C662.546 372.27 662.713 359.968 661.6 349.204C661.554 339.419 660.497 329.665 658.446 320.097L657.696 313.111L656.934 313.819C652.692 298.168 645.651 284.014 635.982 271.911C627.141 260.843 616.166 251.504 603.268 244.083C599.103 238.221 594.773 232.477 590.284 226.859C505.498 120.72 408.792 121.589 371.143 126.884C335.09 131.96 308.739 157.398 303.985 191.716C303.813 193.009 303.696 194.356 303.64 195.778C273.618 202.096 246.196 223.854 242.34 260.282ZM590.943 257.751C583.031 255.356 476.564 224.971 441.408 229.786C437.855 230.277 434.231 231.573 429.862 233.674C431.557 223.963 432.668 207.612 424.794 194.37C426.89 220.967 416.997 238.666 415.185 241.675C400.705 249.984 378.903 262.729 341.188 280.712C336.033 283.169 331.255 286.349 326.998 290.154C323.024 283.164 321.494 275.585 322.726 264.448L330.592 186.356C331.636 175.589 336.016 165.417 343.119 157.26C351.119 151.041 361.24 146.447 373.723 144.686C405.915 140.161 495.527 136.982 576.273 238.064C581.2 244.232 586.099 250.779 590.943 257.751ZM220.435 292.887C231.302 285.841 244.793 282.833 257.203 283.858L252.448 340.364C250.628 356.642 254.593 365.361 263.687 375.637L314.952 428.78C335.91 450.769 367.35 442.642 388.665 423.562C389.251 437.869 393.91 454.994 407.313 473.235C416.206 485.368 427.026 495.051 439.967 501.296C436.656 497.712 433.607 493.896 430.844 489.875C398.32 441.589 417.178 395.599 428.852 372.297C436.968 368.162 442.053 365.034 442.053 365.034C442.053 365.034 454.544 375.424 489.699 365.484C457.26 362.56 441.026 352.469 441.026 352.469C441.026 352.469 350.375 404.404 324.699 370.83C303.554 343.176 314.439 306.161 363.873 282.368C397.718 266.063 423.088 247.137 444.27 241.709C463.426 236.806 585.66 257.386 590.961 257.774L590.985 257.804C603.81 264.595 614.04 273.201 621.958 283.114C637.003 301.948 643.665 325.537 643.63 350.59L643.677 350.541C646.752 379.257 639.521 424.846 651.814 464.316C662.795 499.636 703.08 561.008 703.08 561.008L504.991 719.245C469.393 674.681 421.426 633.899 395.495 613.178C401.116 611.318 406.468 608.726 411.411 605.466C360.002 609.707 299.979 581.162 241.945 513.342C245.102 511.14 248.094 508.638 250.723 505.912C235.632 516.565 215.941 519.659 202.349 505.429L165.071 466.779C158.45 459.321 155.567 452.958 156.911 441.13L162.597 384.359C163.364 376.52 166.559 369.115 171.738 363.18C178.971 358.437 187.305 355.636 195.935 355.049L192.769 393.679C191.226 407.596 194.593 415.073 202.39 423.865L246.302 469.372C265.495 489.49 294.923 480.167 313.05 461.422C295.256 473.952 272.079 477.606 256.086 460.831L212.186 415.339C204.382 406.539 200.982 399.066 202.561 385.132L209.286 318.276C210.32 308.872 214.211 300.011 220.435 292.887ZM284.645 222.763C294.434 216.382 306.072 212.764 317.569 212L311.288 274.396C309.935 286.613 311.837 294.595 316.72 302.138C304.533 321.658 308.395 352.928 322.843 372.461C338.789 393.07 371.874 393.634 396.949 385.601C394.285 390.544 388.264 403.933 388.67 422.108C368.56 434.447 343.869 437.098 326.413 418.8L275.134 365.67C266.032 355.399 262.07 346.654 263.874 330.401L271.74 252.309C272.912 241.37 277.417 231.056 284.645 222.763Z" fill="#3278FF" fill-opacity="0.27"/>
</g>
<defs>
<clipPath id="clip0_549_601">
<rect width="614.645" height="614.645" fill="white" transform="translate(480.234) rotate(51.3815)"/>
</clipPath>
</defs>
</svg>
