<svg width="529" height="615" viewBox="0 0 529 615" fill="none" xmlns="http://www.w3.org/2000/svg">
<path d="M1.71948 1.96875C27.4835 20.8762 25.4935 21.3856 63.7738 35.5942C149.763 67.5113 240.707 88.5762 332.013 97.19C382.01 101.907 467.612 110.562 514.661 80.5301C550.69 57.533 495.33 28.4852 481.647 22.9083C434.233 3.58435 381.78 6.68897 332.472 16.0303C270.741 27.7251 197.978 46.3928 150.283 90.3121C65.4155 168.461 189.3 284.411 246.421 334.861C278.537 363.226 292.798 372.079 325.747 397.527C347.355 414.215 378.074 434.036 388.413 461.415C400.449 493.292 374.206 527.489 352.953 548.23C336.747 564.045 309.851 588.888 309.851 612.73" stroke="#3278FF" stroke-width="3" stroke-linecap="round"/>
</svg>
