<svg width="485" height="120" viewBox="0 0 485 150" fill="none" xmlns="http://www.w3.org/2000/svg">
<path d="M485 0C485 82.843 376.429 150 242.5 150C108.571 150 0 82.843 0 0C0 0 108.571 4.56394e-06 242.5 4.56394e-06C376.429 4.56394e-06 485 0 485 0Z" fill="#D0D0D0"/>
<path d="M361.591 55.9715C361.591 66.777 344.387 75.5367 323.165 75.5367C301.943 75.5367 284.74 66.777 284.74 55.9715C284.74 45.1659 301.943 36.4062 323.165 36.4062C344.387 36.4062 361.591 45.1659 361.591 55.9715Z" fill="#838383"/>
<path d="M247.555 111.013C247.555 121.143 237.146 129.355 224.306 129.355C211.466 129.355 201.057 121.143 201.057 111.013C201.057 100.883 211.466 92.6705 224.306 92.6705C237.146 92.6705 247.555 100.883 247.555 111.013Z" fill="#838383"/>
<path d="M157.888 53.8847C157.888 65.3656 139.817 74.6727 117.525 74.6727C95.2333 74.6727 77.1622 65.3656 77.1622 53.8847C77.1622 42.4037 95.2333 33.0966 117.525 33.0966C139.817 33.0966 157.888 42.4037 157.888 53.8847Z" fill="#838383"/>
</svg>
