<svg width="617" height="278" viewBox="0 0 617 278" fill="none" xmlns="http://www.w3.org/2000/svg">
<path d="M160 201.696C168.216 209.947 177.92 215.162 187.392 219.148C191.282 220.785 201.936 224.74 206.729 223.879C213.838 222.601 213.643 209.981 215.098 202.432C217.818 188.32 217 176 226 169.5C229.446 167.5 234 166.5 234 166.5H237C241.294 167.155 240.749 166.943 244 168" stroke="#FFA500" stroke-width="1.2" stroke-linecap="round"/>
<path d="M244 168C247 169.5 246.652 169.484 246.931 169.614C249.188 170.671 250.513 171.695 252.758 173.348C260.409 178.98 265.466 183.131 272.928 189.893C289.881 205.257 305.199 222.914 323.765 236.434C331.267 241.897 340.317 247.094 349.699 248.745L357 249.5" stroke="#FFA500" stroke-width="1.2" stroke-linecap="round"/>
<path d="M357.5 249.5C357.5 249.5 368.5 250.5 371.5 250C385.5 250 389.369 247.898 399.5 243C404.77 240.452 409.612 234.155 412.509 228.953C415.672 223.273 413.251 217.272 412.909 211.347" stroke="#FFA500" stroke-width="0.8" stroke-linecap="round"/>
<path d="M413 212C412.373 207.987 412.192 201.271 412.067 197.237C412 195.075 411.942 192.898 412.11 190.737C412.29 188.414 412.807 186.15 414.861 184.208C417.958 181.281 422.682 179.252 427.376 177.661C431.774 176.171 448.733 174.856 453.5 174" stroke="#FFA500" stroke-width="0.6" stroke-linecap="round"/>
<path d="M453.5 174C467.102 173.531 481.263 172.464 494.863 173.458C506.675 174.321 518.415 176.665 529.714 181.012C536.301 183.546 542.86 186.947 548.233 192.316C553.305 197.384 555.619 203.927 554.858 211.958C554.218 218.724 552.297 225.524 548.276 230.438C546.129 233.061 542.231 237.009 541 239" stroke="#FFA500" stroke-width="0.4" stroke-linecap="round"/>
<path d="M541 239C541 239 539.746 240.468 539.328 240.957C537.707 242.856 535.998 244.446 534.282 246.221C532.265 248.309 530.992 249.661 529.17 252.004C526.495 255.443 524.261 259.299 521.635 262.784C520.5 264.29 517.987 267.487 516.308 268.557C513.85 270.122 513.415 267.198 513.206 265.157C512.919 262.358 513.016 259.497 513.016 256.682" stroke="#FFA500" stroke-width="0.3" stroke-linecap="round"/>
<path d="M513 260.056C513.223 253.701 513.302 247.36 513.302 241" stroke="#FFA500" stroke-width="0.3" stroke-linecap="round"/>
<path d="M513.187 241.357C513.133 238.851 513.042 236.379 511.943 234.074C510.012 230.021 505.468 230.004 501.528 230.543C497.9 231.04 491.136 234.409 489.295 229.37C486.855 222.695 489.127 215.325 489.963 208.633" stroke="#FFA500" stroke-width="0.4" stroke-linecap="round"/>
<path d="M489.742 209.354C490.612 200.473 490.308 191.554 489.742 182.658C489.097 172.499 487.893 162.445 486.583 152.362" stroke="#FFA500" stroke-width="0.6" stroke-linecap="round"/>
<path d="M486.5 152C478.5 124 477.5 124 447 114C439.178 111.435 432.385 111.021 424.572 108.428C419.504 106.747 403.808 102.003 401.309 93.6834C398.445 84.1487 412.048 77.0559 417.1 74.464C439.142 63.1547 459.137 59.6488 484.152 57.5202C513.26 55.0434 534.262 56.4724 562.521 60.9336C575.808 63.0312 585.402 65.8323 597.5 70" stroke="#FFA500" stroke-width="1.2" stroke-linecap="round"/>
<path d="M597.55 70C603.814 71.6223 609.079 76.8754 612.776 82.148C614.981 85.2928 616.972 89.9585 615.485 93.9104C613.297 99.7257 606.687 103.398 600.835 103.573C589.993 103.897 531 112 531 112" stroke="#FFA500" stroke-width="2" stroke-linecap="round"/>
<path d="M311.606 62C311.606 62 311.107 62.429 310.619 62.9935C304.66 69.8772 300.048 79.4047 296.729 88.658C291.222 104.01 288.88 120.881 293.349 137.2C297.331 151.742 306.501 155.498 317.3 158.466C335.636 163.505 354.731 165.655 373.465 164.827C398.596 163.716 419.045 151.381 444.589 141.782C488.025 125.461 444.589 141.782 488.025 125.461C500.097 119.955 504.408 119.534 532 111.947" stroke="#FFA500" stroke-width="1.9" stroke-linecap="round"/>
<path d="M312 62C317.312 56.0503 325.779 53.8569 332.141 52.8821C347.089 50.5914 362.119 49.5988 377.028 46.6472C381.385 45.7846 385.746 44.7187 389.889 42.4905C392.139 41.281 394.635 39.5287 395.683 36.1053C397.893 28.8881 387.916 29.4582 385.336 29.0941C380.849 28.461 375.944 27.8226 371.625 25.864C370.143 25.1918 371.908 23.9932 372.509 23.7106C374.959 22.5582 377.495 21.9167 379.95 20.8059C380.244 20.6732 383.865 19.0383 382.839 18.5523C379.209 16.8328 375.115 16.5786 371.353 16.0984C369.974 15.9223 367.754 15.8407 367.344 14.4958C367.072 13.6033 369.808 11.5868 374.255 9.06612C374.255 9.06612 375.623 8.56198 375.965 6.04132C375.965 3.01653 375.965 2.28495 375.965 1" stroke="#FFA500" stroke-width="1.1" stroke-linecap="round"/>
<path d="M159.727 201.737C149.947 192.609 138.076 187.642 125.094 185.525C105.595 182.346 85.6009 182.97 66.7581 189.169C59.0647 191.699 51.6514 194.725 44.6519 198.83C38.6668 202.34 32.1428 205.845 27.2125 210.825C20.5078 217.597 15.6143 226.061 11.3493 234.507C7.78786 241.56 3.82502 248.536 2.22025 256.306C0.547195 264.407 1 268.768 1 277M1 277C1 278.036 0.999954 269.529 1 277ZM1 277C0.949945 271 1 275.894 1 277ZM1 277C1 277.57 0.944347 269.5 1 277Z" stroke="#FFA500" stroke-width="1.7" stroke-linecap="round"/>
</svg>
