<svg width="90" height="190" viewBox="0 0 90 190" fill="none" xmlns="http://www.w3.org/2000/svg">
<path d="M46.5494 0.975037C42.5987 4.71777 37.1462 6.86131 33.4585 10.8457C30.5767 13.9594 29.3102 18.9739 28.6982 23.0265C26.8979 34.947 34.5105 42.8649 42.1041 51.1334C62.5666 73.4148 89.3397 95.5892 88.5522 128.664C88.4075 134.74 87.5323 142.741 83.8619 147.915C81.2755 151.561 75.462 150.011 71.8561 149.56" stroke="#FFA500" stroke-width="0.9" stroke-linecap="round"/>
<path d="M23 151.5C22.7929 151.522 20.8209 152.882 20.639 153.003C19.5392 153.736 18.5359 154.654 17.5365 155.513C15.03 157.665 12.4635 159.812 10.2407 162.263C6.64743 166.225 3.39342 170.895 2.2016 176.173C1.23401 180.458 1 184.159 1 188.5" stroke="#FFA500" stroke-width="1.7" stroke-linecap="round"/>
<path d="M21 153C24.8157 150.185 28.6573 147.547 32.3959 144.63C36.8556 141.151 42.4931 136.936 45.6679 131.893C47.7567 128.575 46.9641 125.988 44.0567 123.783C42.1988 122.374 39.6635 121.3 37.4206 120.675C36.2919 120.36 35.0901 120.232 34.0835 120.988C32.8367 121.924 32.2067 123.522 32.0904 125.028C31.8567 128.053 33.6204 130.375 35.7177 132.397C41.2466 137.726 48.1912 141.213 55.2975 143.882M55.2975 143.882C58.3979 145.046 52.1143 143.014 55.2975 143.882ZM55.2975 143.882C62.0378 146.292 48.9763 141.77 55.2975 143.882ZM55.2975 143.882C55.2975 143.882 70 149 71.5 149.5" stroke="#FFA500" stroke-width="1.3" stroke-linecap="round"/>
</svg>
