<svg width="990" height="1109" viewBox="0 0 990 1109" fill="none" xmlns="http://www.w3.org/2000/svg">
<rect width="61.5955" height="50.1966" transform="matrix(0.999996 -0.00115185 0.00105108 1 834.151 213.974)" fill="#D9D9D9"/>
<rect width="12.8918" height="9.12626" transform="matrix(0.999996 -0.00115176 0.00105115 1 895.79 256.51)" fill="#B67600"/>
<path d="M7.29066 8.22659L908.793 6.96014L909.737 1099.96L7.55665 1102.01L7.29066 8.22659Z" fill="#030916"/>
<rect width="822.298" height="976.302" transform="matrix(0.999996 -0.00140482 0.000863823 1 43.6055 104.013)" fill="#040D23"/>
<rect width="834.113" height="989.898" transform="matrix(0.999996 -0.00167124 0.000688707 1 61.9727 44.8843)" fill="#05112D"/>
<path d="M868.448 196.818C868.453 206.049 859.475 213.549 848.395 213.571C837.315 213.592 828.329 206.127 828.324 196.897C828.319 187.666 837.297 180.166 848.377 180.144C859.457 180.122 868.443 187.588 868.448 196.818Z" fill="black"/>
<path d="M980.239 212.992C980.254 241.667 950.789 265.516 913.672 265.588C876.555 265.66 847.065 241.927 847.05 213.251C847.035 184.576 876.5 160.728 913.617 160.655C950.734 160.583 980.224 184.316 980.239 212.992Z" stroke="#858585" stroke-width="2.9449"/>
<rect width="61.6186" height="56.2178" transform="matrix(0.999996 -0.00195006 0.000525774 1 834.114 214.036)" fill="#05112D"/>
<rect width="12.8969" height="15.194" transform="matrix(0.999996 -0.00195006 0.000525774 1 895.755 256.459)" fill="#030916"/>
<path d="M869.119 521.933C869.098 531.176 860.105 538.643 849.031 538.61C837.957 538.578 828.997 531.057 829.017 521.814C829.037 512.57 838.03 505.103 849.104 505.136C860.178 505.169 869.139 512.689 869.119 521.933Z" fill="black"/>
<path d="M980.804 538.677C980.742 567.397 951.226 591.133 914.132 591.023C877.038 590.913 847.626 567.003 847.689 538.283C847.752 509.563 877.268 485.827 914.361 485.937C951.455 486.047 980.867 509.957 980.804 538.677Z" stroke="#858585" stroke-width="2.9449"/>
<rect width="61.5854" height="56.2978" transform="matrix(0.999996 0.00296396 -0.00218286 0.999998 834.757 539.006)" fill="#05112D"/>
<rect width="12.89" height="15.2156" transform="matrix(0.999996 0.00296396 -0.00218286 0.999998 896.249 581.792)" fill="#030916"/>
<path d="M869.79 870.373C869.77 879.617 860.777 887.084 849.703 887.051C838.629 887.018 829.668 879.498 829.689 870.254C829.709 861.011 838.702 853.544 849.776 853.577C860.85 853.609 869.811 861.129 869.79 870.373Z" fill="black"/>
<path d="M981.476 887.118C981.413 915.838 951.897 939.574 914.804 939.464C877.71 939.354 848.298 915.444 848.361 886.724C848.424 858.004 877.94 834.268 915.033 834.378C952.127 834.488 981.539 858.398 981.476 887.118Z" stroke="#858585" stroke-width="2.9449"/>
<rect width="61.5854" height="56.2978" transform="matrix(0.999996 0.00296396 -0.00218286 0.999998 835.429 887.446)" fill="#05112D"/>
<rect width="12.89" height="15.2156" transform="matrix(0.999996 0.00296396 -0.00218286 0.999998 896.921 930.232)" fill="#030916"/>
</svg>
