<svg width="438" height="598" viewBox="0 0 438 598" fill="none" xmlns="http://www.w3.org/2000/svg">
<rect width="27.5833" height="27.2982" transform="matrix(0.999984 -0.00607933 0.00218941 0.999999 370.607 113.006)" fill="#D9D9D9"/>
<rect width="5.77276" height="4.96227" transform="matrix(0.999984 -0.00607858 0.00218968 0.999999 398.239 136.04)" fill="#B67600"/>
<path d="M0.304698 3.31598L404.295 0.153926L405.306 594.178L1.01139 597.769L0.304698 3.31598Z" fill="#030916"/>
<rect width="368.495" height="530.585" transform="matrix(0.999979 -0.00782679 0.00170059 1 16.6528 55.3154)" fill="#040D23"/>
<rect width="373.917" height="537.26" transform="matrix(0.999972 -0.0100532 0.00132396 1 24.8154 23.8208)" fill="#05112D"/>
<path d="M385.936 103.771C385.941 108.757 381.921 112.851 376.956 112.915C371.992 112.979 367.963 108.988 367.958 104.002C367.952 99.0151 371.973 94.921 376.937 94.8573C381.902 94.7936 385.931 98.7843 385.936 103.771Z" fill="#121212"/>
<path d="M434.962 111.997C434.978 127.061 422.185 139.57 406.221 139.775C390.257 139.98 377.439 127.799 377.424 112.735C377.408 97.6713 390.2 85.1619 406.164 84.9571C422.129 84.7522 434.947 96.9329 434.962 111.997Z" stroke="#838383" stroke-width="3.45961"/>
<rect width="27.6106" height="30.3699" transform="matrix(0.999965 -0.0128325 0.00103721 1.00001 370.558 113.233)" fill="#05112D"/>
<rect width="5.77897" height="8.20807" transform="matrix(0.999965 -0.0128325 0.00103721 1.00001 398.191 135.862)" fill="#030916"/>
<path d="M386.56 280.577C386.56 285.61 382.542 289.689 377.585 289.689C372.629 289.689 368.61 285.61 368.61 280.577C368.61 275.545 372.629 271.465 377.585 271.465C382.542 271.465 386.56 275.545 386.56 280.577Z" fill="#121212"/>
<path d="M435.496 289.514C435.496 304.743 422.694 317.191 406.775 317.191C390.856 317.191 378.055 304.743 378.055 289.514C378.055 274.285 390.856 261.837 406.775 261.837C422.694 261.837 435.496 274.285 435.496 289.514Z" stroke="#858585" stroke-width="3.45961"/>
<rect x="371.196" y="289.928" width="27.5656" height="30.6495" fill="#05112D"/>
<rect x="398.762" y="313.122" width="5.76955" height="8.28365" fill="#030916"/>
<path d="M387.201 470.273C387.201 475.306 383.183 479.385 378.226 479.385C373.269 479.385 369.251 475.306 369.251 470.273C369.251 465.241 373.269 461.161 378.226 461.161C383.183 461.161 387.201 465.241 387.201 470.273Z" fill="#121212"/>
<path d="M436.136 479.209C436.136 494.439 423.335 506.886 407.416 506.886C391.496 506.886 378.695 494.439 378.695 479.209C378.695 463.98 391.496 451.532 407.416 451.532C423.335 451.532 436.136 463.98 436.136 479.209Z" stroke="#858585" stroke-width="3.45961"/>
<rect x="371.837" y="479.624" width="27.5656" height="30.6495" fill="#05112D"/>
<rect x="399.403" y="502.818" width="5.76955" height="8.28365" fill="#030916"/>
</svg>
