<svg width="1920" height="728" viewBox="0 0 1920 728" fill="none" xmlns="http://www.w3.org/2000/svg">
<path d="M218 33H1702L1790.5 113.163L1920 159.007L973.5 401L2.5 156L123.5 113.163L218 33Z" fill="black" fill-opacity="0.25"/>
<path d="M133 112H1786.45L1920 155.527V237.827L968.766 518L0 230.5V159L133 112Z" fill="#081A45" fill-opacity="0.13"/>
<path d="M1043.73 307.188C1043.73 320.456 1010.15 331.212 968.727 331.212C927.302 331.212 893.721 320.456 893.721 307.188C893.721 293.92 927.302 283.164 968.727 283.164C1010.15 283.164 1043.73 293.92 1043.73 307.188Z" fill="black"/>
<path d="M839.72 193.908H827.613V192.335C829.332 192.335 830.453 192.155 830.976 191.795C831.2 191.696 831.313 191.549 831.313 191.352C831.313 191.09 831.182 190.844 830.92 190.615C830.733 190.451 830.546 190.287 830.36 190.123C830.21 189.96 830.061 189.796 829.911 189.632C828.79 188.321 827.688 187.011 826.604 185.7C825.52 184.356 824.437 183.029 823.353 181.719C822.568 182.276 821.765 182.816 820.943 183.341C820.158 183.865 819.355 184.406 818.532 184.963V189.779C818.532 190.762 818.775 191.418 819.261 191.745C819.597 191.909 820.027 192.04 820.55 192.139C821.074 192.27 821.69 192.335 822.4 192.335V193.908H811.47V192.335C812.142 192.335 812.722 192.27 813.207 192.139C813.731 192.04 814.142 191.909 814.441 191.745C814.889 191.45 815.113 190.795 815.113 189.779V164.368C815.113 163.254 814.553 162.615 813.432 162.452C813.245 162.419 813.021 162.402 812.759 162.402C812.497 162.37 812.18 162.353 811.806 162.353C811.769 162.189 811.731 162.042 811.694 161.911C811.657 161.747 811.619 161.583 811.582 161.419C812.778 161.026 813.936 160.649 815.057 160.289C816.216 159.896 817.374 159.503 818.532 159.109V182.603C820.438 181.227 822.325 179.884 824.194 178.573C826.1 177.23 828.005 175.87 829.911 174.493C830.285 174.264 830.472 174.035 830.472 173.805C830.472 173.642 830.397 173.494 830.248 173.363C829.836 172.904 828.641 172.675 826.66 172.675V171.151H837.983V172.675C836.936 172.675 836.077 172.79 835.404 173.019C835.105 173.15 834.489 173.576 833.555 174.297L832.041 175.182C830.995 175.935 829.949 176.689 828.902 177.443C827.893 178.196 826.847 178.95 825.763 179.703C827.258 181.473 828.734 183.259 830.191 185.061C831.686 186.83 833.181 188.6 834.676 190.369C835.236 191.024 835.853 191.467 836.525 191.696C837.46 192.122 838.525 192.335 839.72 192.335V193.908Z" fill="white"/>
<path d="M865.559 188.01C865.746 188.141 865.933 188.272 866.119 188.403C866.344 188.534 866.549 188.665 866.736 188.796C865.839 189.976 864.849 190.959 863.765 191.745C862.682 192.532 861.523 193.187 860.29 193.711C858.608 194.432 856.796 194.793 854.853 194.793C851.153 194.793 848.127 193.761 845.772 191.696C843.269 189.501 842.017 186.535 842.017 182.8C842.017 179.196 843.213 176.296 845.604 174.1C847.958 171.839 850.948 170.709 854.573 170.709C858.197 170.709 861.056 171.626 863.149 173.461C865.391 175.329 866.512 178.032 866.512 181.571C863.037 181.669 859.617 181.784 856.254 181.915C852.891 182.014 849.453 182.112 845.941 182.21C845.941 182.341 845.922 182.472 845.884 182.603C845.884 182.702 845.884 182.816 845.884 182.947C845.884 184.324 846.09 185.569 846.501 186.683C846.949 187.797 847.585 188.796 848.407 189.681C850.126 191.647 852.536 192.63 855.638 192.63C857.282 192.63 859.001 192.253 860.794 191.5C861.617 191.074 862.42 190.582 863.205 190.025C864.027 189.435 864.812 188.764 865.559 188.01ZM846.053 180.342C848.855 180.277 851.621 180.195 854.348 180.097C857.076 179.998 859.842 179.916 862.644 179.851C862.607 177.688 861.841 175.952 860.346 174.641C858.814 173.199 856.889 172.478 854.573 172.478C852.331 172.478 850.369 173.265 848.687 174.838C847.118 176.279 846.239 178.114 846.053 180.342Z" fill="white"/>
<path d="M893.093 188.01C893.28 188.141 893.466 188.272 893.653 188.403C893.877 188.534 894.083 188.665 894.27 188.796C893.373 189.976 892.383 190.959 891.299 191.745C890.215 192.532 889.057 193.187 887.824 193.711C886.142 194.432 884.33 194.793 882.387 194.793C878.687 194.793 875.66 193.761 873.306 191.696C870.802 189.501 869.551 186.535 869.551 182.8C869.551 179.196 870.746 176.296 873.138 174.1C875.492 171.839 878.482 170.709 882.106 170.709C885.731 170.709 888.59 171.626 890.682 173.461C892.924 175.329 894.046 178.032 894.046 181.571C890.57 181.669 887.151 181.784 883.788 181.915C880.425 182.014 876.987 182.112 873.474 182.21C873.474 182.341 873.456 182.472 873.418 182.603C873.418 182.702 873.418 182.816 873.418 182.947C873.418 184.324 873.624 185.569 874.035 186.683C874.483 187.797 875.118 188.796 875.941 189.681C877.659 191.647 880.07 192.63 883.171 192.63C884.816 192.63 886.534 192.253 888.328 191.5C889.15 191.074 889.954 190.582 890.738 190.025C891.561 189.435 892.345 188.764 893.093 188.01ZM873.586 180.342C876.389 180.277 879.154 180.195 881.882 180.097C884.61 179.998 887.375 179.916 890.178 179.851C890.141 177.688 889.374 175.952 887.88 174.641C886.348 173.199 884.423 172.478 882.106 172.478C879.864 172.478 877.902 173.265 876.221 174.838C874.651 176.279 873.773 178.114 873.586 180.342Z" fill="white"/>
<path d="M922.756 182.554C922.756 186.224 921.579 189.14 919.225 191.303C917.02 193.269 914.33 194.252 911.153 194.252C907.977 194.252 905.53 193.597 903.811 192.286V197.201C903.811 198.053 904.072 198.676 904.595 199.069C905.231 199.495 906.165 199.708 907.398 199.708V201.33H896.748V199.708C898.243 199.708 899.252 199.495 899.775 199.069C900.148 198.741 900.335 198.119 900.335 197.201V176.017C900.335 175.853 900.298 175.608 900.223 175.28C900.186 175.018 900.074 174.805 899.887 174.641C899.513 174.313 898.542 174.149 896.972 174.149C896.935 173.986 896.897 173.805 896.86 173.609C896.86 173.412 896.841 173.232 896.804 173.068C898 172.708 899.177 172.347 900.335 171.987C901.494 171.594 902.652 171.217 903.811 170.856V172.822C905.754 171.512 908.257 170.856 911.322 170.856C914.647 170.856 917.357 171.872 919.449 173.904C921.654 176.132 922.756 179.015 922.756 182.554ZM919.001 182.603C919.001 179.753 918.16 177.443 916.478 175.673C914.834 173.838 912.704 172.921 910.088 172.921C907.473 172.921 905.38 173.658 903.811 175.132V189.828C905.38 191.401 907.473 192.188 910.088 192.188C912.555 192.188 914.629 191.303 916.31 189.534C918.104 187.666 919.001 185.356 919.001 182.603Z" fill="white"/>
<path d="M1012.95 161.419C1012.95 162.206 1012.65 162.861 1012.06 163.385C1011.46 163.91 1010.71 164.172 1009.81 164.172C1008.99 164.172 1008.3 163.91 1007.74 163.385C1007.22 162.861 1006.95 162.206 1006.95 161.419C1006.95 160.633 1007.24 159.978 1007.8 159.453C1008.36 158.929 1009.03 158.667 1009.81 158.667C1010.71 158.667 1011.46 158.929 1012.06 159.453C1012.65 159.978 1012.95 160.633 1012.95 161.419ZM1015.59 193.957H1005.11V192.335C1006.64 192.335 1007.63 192.139 1008.08 191.745C1008.45 191.45 1008.64 190.91 1008.64 190.123V175.968C1008.64 175.247 1008.47 174.756 1008.13 174.493C1007.72 174.199 1006.73 174.051 1005.16 174.051L1004.94 172.97L1012.06 170.611V190.123C1012.06 191.041 1012.22 191.614 1012.56 191.844C1013.05 192.171 1014.05 192.335 1015.59 192.335V193.957Z" fill="white"/>
<path d="M1045.46 193.908H1034.53V192.335C1035.84 192.335 1036.75 192.188 1037.28 191.893C1037.91 191.532 1038.23 190.828 1038.23 189.779V177.443C1038.23 174.69 1036.75 173.314 1033.8 173.314C1032.05 173.314 1030.57 173.576 1029.37 174.1C1028.85 174.33 1028.23 174.641 1027.52 175.034C1026.81 175.395 1026.03 175.837 1025.17 176.361V189.779C1025.17 190.762 1025.41 191.418 1025.9 191.745C1026.2 191.909 1026.61 192.04 1027.13 192.139C1027.65 192.27 1028.29 192.335 1029.04 192.335V193.908H1018.11V192.335C1019.53 192.335 1020.55 192.139 1021.19 191.745C1021.56 191.418 1021.75 190.762 1021.75 189.779V176.214C1021.75 175.329 1021.56 174.772 1021.19 174.543C1020.67 174.182 1019.71 174.002 1018.33 174.002C1018.26 173.838 1018.2 173.658 1018.16 173.461C1018.16 173.265 1018.13 173.085 1018.05 172.921C1019.25 172.56 1020.42 172.2 1021.58 171.839C1022.78 171.479 1023.97 171.118 1025.17 170.758V174.248C1028.35 171.954 1031.58 170.807 1034.87 170.807C1037.15 170.807 1038.85 171.381 1039.97 172.527C1041.09 173.707 1041.65 175.378 1041.65 177.541V189.73C1041.65 190.746 1041.87 191.418 1042.32 191.745C1042.62 191.909 1043.03 192.04 1043.55 192.139C1044.08 192.27 1044.71 192.335 1045.46 192.335V193.908Z" fill="white"/>
<path d="M1058.04 191.991C1053.74 192.81 1051.59 194.154 1051.59 196.021C1051.59 197.136 1052.39 197.987 1054 198.577C1055.68 199.134 1058.04 199.413 1061.06 199.413C1062.04 199.413 1062.93 199.364 1063.75 199.265C1064.61 199.2 1065.4 199.069 1066.11 198.872C1066.33 198.807 1066.56 198.725 1066.78 198.626C1067.01 198.561 1067.21 198.495 1067.4 198.43C1069.08 197.84 1069.92 197.086 1069.92 196.169C1069.92 195.514 1069.55 194.973 1068.8 194.547C1068.05 194.121 1066.65 193.679 1064.6 193.22C1063.77 193.056 1062.8 192.876 1061.68 192.679C1060.6 192.483 1059.38 192.253 1058.04 191.991ZM1074.74 172.429C1074.74 173.674 1074.12 174.297 1072.89 174.297C1072.37 174.297 1071.86 174.133 1071.38 173.805C1071.12 173.674 1070.87 173.576 1070.65 173.51C1070.42 173.412 1070.2 173.363 1069.98 173.363C1069.79 173.363 1069.68 173.379 1069.64 173.412C1069.34 173.445 1069.04 173.625 1068.74 173.953C1069.83 175.198 1070.37 176.754 1070.37 178.622C1070.37 180.818 1069.43 182.652 1067.57 184.127C1065.66 185.602 1063.19 186.339 1060.17 186.339C1059.31 186.339 1058.54 186.306 1057.87 186.24C1057.2 186.175 1056.6 186.093 1056.08 185.995C1054.47 186.29 1053.66 186.748 1053.66 187.371C1053.66 187.994 1054.32 188.436 1055.63 188.698C1056 188.764 1056.37 188.829 1056.75 188.895C1057.12 188.927 1057.48 188.977 1057.81 189.042C1059.53 189.37 1061.06 189.665 1062.41 189.927C1063.75 190.189 1064.95 190.435 1066 190.664C1067.04 190.893 1067.96 191.139 1068.74 191.401C1069.57 191.631 1070.26 191.909 1070.82 192.237C1072.46 193.089 1073.28 194.17 1073.28 195.481C1073.28 199.249 1068.93 201.133 1060.22 201.133C1052.08 201.133 1048 199.462 1048 196.12C1048 195.137 1048.75 194.154 1050.25 193.171C1050.92 192.712 1051.65 192.335 1052.43 192.04C1053.22 191.745 1054.06 191.516 1054.95 191.352C1051.7 190.631 1050.08 189.583 1050.08 188.207C1050.08 186.863 1051.35 185.815 1053.89 185.061C1051.27 183.586 1049.97 181.407 1049.97 178.524C1049.97 176.328 1050.94 174.493 1052.88 173.019C1054.82 171.512 1057.25 170.758 1060.17 170.758C1063.27 170.758 1065.68 171.364 1067.4 172.577C1068.63 171.299 1070.11 170.66 1071.83 170.66C1073.77 170.66 1074.74 171.25 1074.74 172.429ZM1066.89 178.622C1066.89 177.737 1066.73 176.935 1066.39 176.214C1066.05 175.46 1065.59 174.821 1064.99 174.297C1064.39 173.74 1063.68 173.314 1062.86 173.019C1062.04 172.691 1061.16 172.527 1060.22 172.527C1058.21 172.527 1056.58 173.085 1055.35 174.199C1054.15 175.313 1053.55 176.754 1053.55 178.524C1053.55 180.26 1054.17 181.669 1055.4 182.751C1056.67 183.963 1058.28 184.569 1060.22 184.569C1062.09 184.569 1063.66 184.012 1064.93 182.898C1066.24 181.751 1066.89 180.326 1066.89 178.622Z" fill="white"/>
<path fill-rule="evenodd" clip-rule="evenodd" d="M1008.28 204.721C1022.32 204.459 1036.38 205.844 1047.9 210.342C1050.05 211.184 1051.65 212.009 1052.76 212.825C1053.86 213.637 1054.56 214.499 1054.75 215.422C1054.95 216.376 1054.57 217.23 1053.92 217.941C1053.29 218.638 1052.37 219.241 1051.33 219.764C1049.24 220.812 1046.47 221.651 1043.89 222.279C1041.3 222.91 1038.86 223.342 1037.41 223.559C1006.3 228.236 967.781 225.982 937.43 224.206C936.89 224.174 936.353 224.143 935.819 224.112C933.527 223.978 931.234 223.838 928.939 223.692C927.449 224.419 925.973 225.168 924.512 225.941C920.838 227.884 918.156 229.317 916.241 230.359C916.297 230.367 916.352 230.376 916.407 230.39C916.6 230.436 916.886 230.548 917.075 230.815C917.269 231.088 917.255 231.372 917.204 231.565C917.115 231.9 916.849 232.215 916.591 232.477C916.026 233.051 914.977 233.883 913.294 235.065C912.907 235.337 912.342 235.282 912.032 234.942C911.722 234.603 911.784 234.107 912.171 233.835C913.027 233.234 913.69 232.743 914.193 232.346C913.909 232.433 913.622 232.525 913.345 232.613C913.251 232.643 913.158 232.673 913.066 232.702C912.766 232.797 912.479 232.887 912.242 232.953C912.123 232.986 912.005 233.016 911.896 233.039C911.808 233.057 911.649 233.087 911.483 233.083C911.412 233.082 911.21 233.073 911.001 232.963C910.881 232.901 910.75 232.8 910.658 232.649C910.565 232.497 910.541 232.343 910.55 232.217C910.564 231.995 910.678 231.838 910.719 231.784C910.774 231.712 910.835 231.654 910.88 231.613C911.047 231.463 911.318 231.282 911.65 231.078C913.027 230.229 916.484 228.347 923.584 224.592C924.292 224.217 925.004 223.848 925.719 223.484C895.982 221.526 866.097 218.572 836.68 214.326C836.19 214.256 835.858 213.85 835.939 213.421C836.02 212.992 836.482 212.701 836.971 212.772C867.214 217.136 897.959 220.135 928.537 222.087C941.059 216.038 954.571 211.613 968.486 209.044C980.122 206.896 994.223 204.983 1008.28 204.721ZM931.883 222.297C933.235 222.38 934.587 222.461 935.939 222.54C936.439 222.569 936.942 222.599 937.446 222.628C967.868 224.408 1006.21 226.651 1037.11 222.007C1038.51 221.796 1040.89 221.375 1043.41 220.761C1045.94 220.144 1048.55 219.346 1050.43 218.397C1051.38 217.922 1052.09 217.437 1052.52 216.96C1052.94 216.497 1053.06 216.091 1052.98 215.702C1052.9 215.284 1052.54 214.722 1051.61 214.032C1050.67 213.347 1049.24 212.592 1047.16 211.781C1035.99 207.417 1022.23 206.036 1008.31 206.296C994.41 206.555 980.426 208.45 968.857 210.585C956.03 212.953 943.548 216.919 931.883 222.297ZM911.446 231.512C911.446 231.512 911.448 231.512 911.451 231.512C911.448 231.512 911.446 231.512 911.446 231.512ZM912.167 232.712C912.165 232.714 912.165 232.714 912.166 232.713Z" fill="#3278FF"/>
<path fill-rule="evenodd" clip-rule="evenodd" d="M1089.93 186.499C1089.37 186.618 1088.98 186.779 1088.73 186.965C1088.36 187.25 1087.79 187.216 1087.47 186.888C1087.14 186.56 1087.18 186.063 1087.55 185.777C1088.1 185.358 1088.81 185.116 1089.51 184.968C1090.21 184.818 1090.98 184.751 1091.71 184.723C1092.45 184.694 1093.17 184.705 1093.79 184.721C1093.97 184.726 1094.14 184.731 1094.3 184.735C1094.71 184.747 1095.03 184.756 1095.29 184.753C1117.6 184.469 1140.08 185.547 1161.87 189.654C1172.11 191.582 1185.84 194.573 1197.14 199.626C1208.4 204.664 1217.53 211.889 1217.98 222.378C1218.44 233.05 1211.35 240.808 1201.71 246.741C1192.19 252.601 1180.01 256.787 1169.7 260.331L1169.36 260.448C1145.34 268.706 1121.52 273.29 1095.05 273.394C1056.27 273.546 1017.35 270.71 978.631 267.889C963.666 266.799 948.729 265.711 933.841 264.798C900.209 262.736 866.536 260.711 832.814 260.405C831.001 260.388 829.135 260.36 827.23 260.331C820.605 260.229 813.498 260.12 806.481 260.488C797.447 260.962 788.667 262.223 781.391 265.26C774.816 268.006 770.924 272.65 767.533 277.813C766.679 279.112 765.853 280.454 765.021 281.805C764.253 283.051 763.48 284.306 762.675 285.546C768.324 287.919 773.573 291.258 778.46 294.921C783.301 298.55 787.855 302.555 792.097 306.285C794.385 308.297 796.582 310.229 798.683 311.979C800.136 313.188 801.843 314.926 803.705 316.821C803.861 316.98 804.018 317.14 804.176 317.301C806.239 319.398 808.503 321.677 810.908 323.745C813.317 325.817 815.832 327.648 818.382 328.868C820.93 330.088 823.451 330.668 825.91 330.328C830.05 329.754 834.239 328.25 838.309 326.443C840.891 325.296 843.37 324.054 845.751 322.861C847.146 322.162 848.507 321.48 849.836 320.844C853.143 319.26 856.434 317.625 859.734 315.986C867.533 312.112 875.383 308.213 883.628 304.9C897.723 299.236 918.082 294.455 934.416 296.535C942.14 297.519 950.402 300.88 956.963 305.55C963.513 310.213 968.489 316.27 969.425 322.705C969.456 322.92 969.487 323.128 969.517 323.331C969.845 325.564 970.075 327.125 970.075 330.424C970.075 330.859 969.672 331.212 969.176 331.212C968.68 331.212 968.278 330.859 968.278 330.424C968.278 327.226 968.06 325.744 967.735 323.533C967.705 323.33 967.674 323.121 967.643 322.904C966.788 317.023 962.185 311.297 955.831 306.773C949.488 302.259 941.522 299.032 934.158 298.094C918.309 296.075 898.32 300.729 884.376 306.332C876.205 309.616 868.463 313.461 860.694 317.321C857.378 318.968 854.058 320.617 850.697 322.226C849.432 322.832 848.097 323.5 846.713 324.193C844.298 325.403 841.732 326.688 839.12 327.848C834.987 329.684 830.603 331.273 826.191 331.884C823.211 332.296 820.282 331.572 817.522 330.251C814.764 328.932 812.112 326.987 809.65 324.87C807.185 322.75 804.876 320.426 802.816 318.33C802.664 318.176 802.515 318.024 802.366 317.873C800.478 315.95 798.83 314.273 797.446 313.121C795.272 311.311 793.042 309.35 790.739 307.324C786.535 303.626 782.088 299.714 777.292 296.119C772.421 292.467 767.261 289.203 761.768 286.912C760.266 289.121 758.627 291.249 756.693 293.151C748.931 300.789 738.552 308.112 727.078 311.72C715.568 315.339 702.941 315.219 690.853 307.925C685.496 304.693 682.46 300.818 682.632 296.913C682.805 292.975 686.212 289.417 692.643 286.786C710.186 279.609 734.444 279.044 753.34 282.677C755.983 283.185 758.547 283.94 761.034 284.888C761.822 283.677 762.584 282.44 763.353 281.191C764.205 279.809 765.065 278.413 765.976 277.026C769.423 271.78 773.543 266.792 780.619 263.838C788.202 260.672 797.252 259.394 806.374 258.916C813.468 258.544 820.668 258.654 827.303 258.756C829.198 258.785 831.046 258.813 832.832 258.83C866.616 259.136 900.341 261.165 933.966 263.226C948.906 264.142 963.874 265.233 978.857 266.324C1017.55 269.144 1056.34 271.97 1095.04 271.819C1121.27 271.716 1144.87 267.178 1168.71 258.982L1168.95 258.898C1179.32 255.332 1191.33 251.202 1200.68 245.451C1210.08 239.664 1216.61 232.346 1216.18 222.438C1215.77 212.837 1207.42 205.996 1196.32 201.029C1185.25 196.076 1171.71 193.119 1161.5 191.194C1139.88 187.121 1117.55 186.045 1095.31 186.328C1095.01 186.332 1094.62 186.321 1094.2 186.308C1094.05 186.304 1093.89 186.3 1093.74 186.296C1093.13 186.28 1092.46 186.271 1091.79 186.296C1091.12 186.322 1090.48 186.383 1089.93 186.499ZM760.122 286.259C757.794 285.382 755.406 284.687 752.955 284.216C734.318 280.633 710.487 281.224 693.403 288.214C687.238 290.736 684.562 293.897 684.427 296.974C684.29 300.083 686.722 303.521 691.871 306.627C703.402 313.585 715.406 313.716 726.471 310.237C737.572 306.746 747.714 299.619 755.352 292.103C757.168 290.316 758.702 288.338 760.122 286.259Z" fill="#FFA500" stroke="#3278FF" stroke-width="2" stroke-linecap="round"/>
<path d="M950.463 190.162C945.397 191.128 942.864 192.712 942.864 194.913C942.864 196.227 943.811 197.231 945.705 197.927C947.688 198.583 950.463 198.912 954.032 198.912C955.177 198.912 956.234 198.854 957.204 198.738C958.217 198.661 959.142 198.506 959.979 198.274C960.244 198.197 960.508 198.1 960.772 197.985C961.037 197.907 961.279 197.83 961.499 197.753C963.482 197.058 964.473 196.169 964.473 195.087C964.473 194.315 964.032 193.677 963.151 193.175C962.27 192.673 960.618 192.151 958.195 191.611C957.226 191.417 956.08 191.205 954.759 190.973C953.481 190.741 952.049 190.471 950.463 190.162ZM970.156 167.1C970.156 168.568 969.429 169.302 967.975 169.302C967.358 169.302 966.764 169.108 966.191 168.722C965.883 168.568 965.596 168.452 965.332 168.375C965.068 168.259 964.803 168.201 964.539 168.201C964.319 168.201 964.186 168.22 964.142 168.259C963.79 168.297 963.437 168.51 963.085 168.896C964.363 170.364 965.001 172.199 965.001 174.401C965.001 176.989 963.9 179.152 961.697 180.891C959.451 182.629 956.543 183.498 952.974 183.498C951.961 183.498 951.058 183.46 950.265 183.382C949.472 183.305 948.767 183.209 948.15 183.093C946.256 183.44 945.309 183.981 945.309 184.715C945.309 185.449 946.08 185.971 947.622 186.28C948.062 186.357 948.503 186.434 948.943 186.511C949.384 186.55 949.802 186.608 950.199 186.685C952.225 187.072 954.032 187.419 955.618 187.728C957.204 188.037 958.614 188.327 959.847 188.597C961.081 188.868 962.16 189.158 963.085 189.467C964.054 189.737 964.869 190.065 965.53 190.452C967.468 191.456 968.438 192.731 968.438 194.276C968.438 198.719 963.305 200.94 953.04 200.94C943.437 200.94 938.635 198.97 938.635 195.029C938.635 193.871 939.516 192.712 941.278 191.553C942.071 191.012 942.93 190.568 943.855 190.22C944.78 189.872 945.771 189.602 946.829 189.409C942.996 188.559 941.08 187.323 941.08 185.7C941.08 184.116 942.577 182.88 945.573 181.992C942.489 180.253 940.947 177.684 940.947 174.285C940.947 171.697 942.093 169.533 944.384 167.795C946.675 166.018 949.538 165.13 952.974 165.13C956.631 165.13 959.473 165.844 961.499 167.274C962.953 165.767 964.693 165.014 966.72 165.014C969.01 165.014 970.156 165.709 970.156 167.1ZM960.904 174.401C960.904 173.358 960.706 172.411 960.31 171.561C959.913 170.673 959.362 169.92 958.658 169.302C957.953 168.645 957.116 168.143 956.146 167.795C955.177 167.409 954.142 167.216 953.04 167.216C950.662 167.216 948.745 167.872 947.291 169.186C945.882 170.499 945.177 172.199 945.177 174.285C945.177 176.332 945.904 177.993 947.357 179.268C948.855 180.698 950.75 181.412 953.04 181.412C955.243 181.412 957.094 180.755 958.591 179.442C960.133 178.09 960.904 176.41 960.904 174.401ZM1001.98 179.268C1001.98 183.595 1000.57 187.052 997.749 189.64C995.062 192.229 991.625 193.523 987.44 193.523C983.211 193.523 979.752 192.229 977.065 189.64C974.246 187.052 972.836 183.595 972.836 179.268C972.836 174.942 974.246 171.484 977.065 168.896C979.752 166.308 983.211 165.014 987.44 165.014C991.625 165.014 995.062 166.308 997.749 168.896C1000.57 171.484 1001.98 174.942 1001.98 179.268ZM997.485 179.268C997.485 175.714 996.515 172.798 994.577 170.518C992.771 168.239 990.392 167.1 987.44 167.1C984.532 167.1 982.109 168.239 980.171 170.518C978.277 172.798 977.329 175.714 977.329 179.268C977.329 182.784 978.255 185.7 980.105 188.018C981.999 190.259 984.444 191.379 987.44 191.379C990.304 191.379 992.683 190.259 994.577 188.018C996.515 185.739 997.485 182.822 997.485 179.268Z" fill="#3278FF"/>
<path d="M1790 111.965L1920 157V9.98378e-07L1660 9.98378e-07L1725 55.9826L1790 111.965Z" fill="#3278FF" fill-opacity="0.27"/>
<path d="M130 112.965L0 158L0 1L260 1L195 56.9826L130 112.965Z" fill="#3278FF" fill-opacity="0.27"/>
<path d="M0 0H1920V37L960 0L0 37V0Z" fill="#3278FF" fill-opacity="0.27"/>
<path d="M972.913 518C972.913 536.182 972.913 525.273 974.221 552.545C975.29 574.818 996.31 587.647 995.997 597.456C995.511 612.629 976.243 617.34 954.787 625.049C925.916 635.421 878.482 661.233 898.996 681.959C906.848 689.892 919.562 703.042 933.232 708" stroke="#3278FF" stroke-width="2.5" stroke-linecap="round"/>
<path d="M513.109 65.6892C514.144 77.5181 492.905 89.0389 465.671 91.4216C438.437 93.8042 415.521 86.1465 414.486 74.3176C413.451 62.4887 434.689 50.9679 461.923 48.5852C489.158 46.2025 512.074 53.8602 513.109 65.6892Z" fill="black"/>
<path d="M452 90.9997C452 90.9997 449 80.4997 463 96.9997C478.5 123 595.666 40.9538 609.847 34.4564C628.59 25.8688 584.143 21.4615 562.871 34.4564C545.588 43.9526 576.166 96.9315 585.473 111.926C620.926 128.419 700.578 218.338 745.899 199.391C752.529 196.619 758.723 186.265 765.398 184.897C770.608 183.828 782.683 182.398 788 182.398" stroke="#3278FF" stroke-width="2" stroke-linecap="round"/>
</svg>
